<svg xmlns="http://www.w3.org/2000/svg" xmlns:xlink="http://www.w3.org/1999/xlink" width="500" zoomAndPan="magnify" viewBox="0 0 375 374.999991" height="500" preserveAspectRatio="xMidYMid meet" version="1.0"><defs><g/></defs><rect x="-37.5" width="450" fill="#ffffff" y="-37.499999" height="449.999989" fill-opacity="1"/><rect x="-37.5" width="450" fill="#ffffff" y="-37.499999" height="449.999989" fill-opacity="1"/><g fill="#ea2e27" fill-opacity="1"><g transform="translate(20.764739, 211.653369)"><g><path d="M 13.519531 -51.125 L -3.898438 -47.730469 C -3.0625 -44.5 4.730469 -4.523438 5.207031 -1.015625 L 16.417969 -3.199219 C 16.117188 -4.386719 14.917969 -10.179688 13.527344 -17.324219 L 19.800781 -18.546875 C 31.945312 -20.914062 38.121094 -28.695312 36.246094 -38.308594 C 34.320312 -48.183594 25 -53.363281 13.519531 -51.125 Z M 16.828125 -24.199219 C 14.625 -23.769531 13.597656 -23.710938 12.265625 -23.796875 L 8.53125 -42.949219 C 8.578125 -43.789062 9.351562 -44.078125 10.21875 -44.25 L 13.421875 -44.875 C 19.09375 -45.980469 23.664062 -42.4375 25.03125 -35.429688 C 26.125 -29.820312 23.902344 -25.578125 19.296875 -24.679688 Z M 16.828125 -24.199219 "/></g></g></g><g fill="#ea2e27" fill-opacity="1"><g transform="translate(61.724386, 203.57035)"><g><path d="M 45.671875 -6.257812 C 43.761719 -8.191406 35 -19.550781 32.519531 -23.125 C 37.488281 -26.414062 39.683594 -31.449219 38.917969 -37.039062 C 37.699219 -45.933594 29.578125 -52.09375 15.902344 -50.21875 L -1.207031 -47.875 C -0.675781 -44.996094 4.957031 -4.386719 5.253906 -0.71875 L 16.570312 -2.269531 C 16.320312 -3.609375 15.320312 -10.402344 14.222656 -18.421875 L 21.96875 -19.480469 L 22.441406 -19.546875 C 24.953125 -16.734375 32.144531 -6.328125 33.144531 -4.542969 Z M 18.039062 -25.121094 C 16.421875 -24.898438 14.691406 -25.003906 13.289062 -25.222656 L 11.109375 -41.121094 C 11.078125 -42.351562 11.832031 -42.867188 13.71875 -43.125 L 16.546875 -43.515625 C 22.679688 -44.355469 26.582031 -40.910156 27.394531 -34.980469 C 28.132812 -29.589844 25.515625 -26.144531 20.058594 -25.398438 Z M 18.039062 -25.121094 "/></g></g></g><g fill="#ea2e27" fill-opacity="1"><g transform="translate(105.206593, 197.623258)"><g><path d="M 23.121094 -8.386719 C 18.984375 -8.046875 17.210938 -8.035156 15.960938 -8.34375 C 15.566406 -12.265625 15.15625 -17.28125 14.726562 -22.5 C 20.753906 -22.996094 26.78125 -23.5625 32.765625 -23.78125 L 32.191406 -30.761719 C 26.1875 -29.925781 20.230469 -29.367188 14.195312 -28.9375 C 13.808594 -33.613281 13.445312 -38.019531 13.21875 -41.613281 C 13.308594 -42.167969 13.832031 -42.417969 14.714844 -42.488281 C 20.542969 -42.96875 29.835938 -43.597656 35.132812 -43.898438 L 34.582031 -50.609375 L 1.375 -47.871094 C 1.898438 -44.027344 5.25 -3.367188 5.285156 -0.4375 L 39.507812 -3.253906 L 38.949219 -10.03125 C 34.695312 -9.476562 26.644531 -8.675781 23.121094 -8.386719 Z M 23.121094 -8.386719 "/></g></g></g><g fill="#ea2e27" fill-opacity="1"><g transform="translate(143.110584, 194.114816)"><g><path d="M 12.578125 -0.246094 L 14.445312 -33.46875 L 26.53125 -10.105469 C 27.019531 -9.367188 27.507812 -8.765625 28.867188 -8.789062 C 29.886719 -8.808594 30.421875 -9.363281 31.085938 -10.195312 L 41.582031 -33.519531 L 44.460938 -0.863281 L 56.015625 -1.089844 L 51.625 -48.609375 L 43.398438 -48.449219 C 42.039062 -48.421875 41.578125 -47.734375 40.988281 -46.632812 L 29.878906 -23.296875 L 18.28125 -46.191406 C 17.644531 -47.472656 16.75 -47.929688 15.050781 -47.898438 L 6.484375 -47.730469 L 3.941406 -0.078125 Z M 12.578125 -0.246094 "/></g></g></g><g fill="#ea2e27" fill-opacity="1"><g transform="translate(200.52688, 193.222943)"><g><path d="M 23.988281 -5.425781 C 19.84375 -5.605469 18.082031 -5.816406 16.878906 -6.277344 C 16.980469 -10.222656 17.199219 -15.246094 17.425781 -20.476562 C 23.472656 -20.214844 29.519531 -20.023438 35.488281 -19.492188 L 35.789062 -26.488281 C 29.730469 -26.410156 23.75 -26.601562 17.707031 -26.933594 C 17.910156 -31.621094 18.101562 -36.035156 18.324219 -39.632812 C 18.484375 -40.167969 19.039062 -40.351562 19.921875 -40.3125 C 25.761719 -40.058594 35.0625 -39.519531 40.355469 -39.152344 L 40.648438 -45.878906 L 7.359375 -47.320312 C 7.398438 -43.441406 5.628906 -2.683594 5.296875 0.230469 L 39.605469 1.71875 L 39.898438 -5.074219 C 35.609375 -5.058594 27.519531 -5.273438 23.988281 -5.425781 Z M 23.988281 -5.425781 "/></g></g></g><g fill="#ea2e27" fill-opacity="1"><g transform="translate(238.633055, 194.642301)"><g><path d="M 29.011719 -44.902344 L 10.070312 -46.820312 C 9.84375 -42.539062 5.847656 -2.414062 5.277344 0.535156 L 24.488281 2.480469 C 39.507812 4 50.199219 -3.734375 51.679688 -18.34375 C 53.125 -32.621094 43.558594 -43.429688 29.011719 -44.902344 Z M 23 -3.753906 C 20.632812 -3.992188 18.84375 -5.199219 17.449219 -6.296875 C 18.308594 -15.4375 19.800781 -30.183594 20.75 -38.90625 C 21.015625 -39.492188 21.570312 -39.574219 23.058594 -39.421875 L 26.441406 -39.078125 C 34.019531 -38.3125 40.890625 -29.894531 39.675781 -17.921875 C 38.65625 -7.839844 33.011719 -2.738281 26.789062 -3.371094 Z M 23 -3.753906 "/></g></g></g><g fill="#ea2e27" fill-opacity="1"><g transform="translate(287.927244, 199.922654)"><g><path d="M 16.546875 2.441406 C 16.707031 -0.492188 22.660156 -40.851562 23.496094 -44.644531 L 12.195312 -46.3125 C 11.839844 -42.515625 5.875 -2.089844 5.246094 0.773438 Z M 16.546875 2.441406 "/></g></g></g><g fill="#ea2e27" fill-opacity="1"><g transform="translate(307.537459, 202.478067)"><g><path d="M 36.5 -40.417969 C 36.292969 -41.148438 35.621094 -41.625 34.488281 -41.839844 L 24.472656 -43.765625 C 23.765625 -41.894531 24.367188 -39.976562 25.515625 -39.480469 C 18.378906 -27.902344 6.851562 -10.800781 -0.332031 -0.0625 L 9.617188 1.847656 L 15.378906 -8.332031 C 21.066406 -7.308594 26.742188 -6.21875 32.40625 -5.058594 C 32.890625 -1.089844 33.441406 2.894531 34.054688 6.542969 L 47.875 9.199219 C 44.652344 -1.046875 41.074219 -20.980469 36.5 -40.417969 Z M 18.300781 -13.449219 C 21.988281 -19.664062 25.164062 -24.660156 28.664062 -30.980469 C 29.40625 -25.855469 30.597656 -18.703125 31.789062 -10.855469 Z M 18.300781 -13.449219 "/></g></g></g></svg>