<svg xmlns="http://www.w3.org/2000/svg" xmlns:xlink="http://www.w3.org/1999/xlink" width="5000" zoomAndPan="magnify" viewBox="0 0 3750 1874.999927" height="2500" preserveAspectRatio="xMidYMid meet" version="1.0"><defs><g/></defs><rect x="-375" width="4500" fill="#ffffff" y="-187.499993" height="2249.999912" fill-opacity="1"/><rect x="-375" width="4500" fill="#ffffff" y="-187.499993" height="2249.999912" fill-opacity="1"/><g fill="#ea2e27" fill-opacity="1"><g transform="translate(155.900693, 1186.529863)"><g><path d="M 139.394531 -527.136719 L -40.199219 -492.132812 C -31.566406 -458.820312 48.761719 -46.644531 53.671875 -10.460938 L 169.273438 -32.988281 C 166.171875 -45.242188 153.816406 -104.972656 139.46875 -178.601562 L 204.148438 -191.207031 C 329.386719 -215.613281 393.027344 -295.867188 373.714844 -394.957031 C 353.867188 -496.796875 257.75 -550.203125 139.394531 -527.136719 Z M 173.5 -249.515625 C 150.792969 -245.089844 140.203125 -244.453125 126.460938 -245.347656 L 87.972656 -442.832031 C 88.425781 -451.492188 96.417969 -454.476562 105.363281 -456.222656 L 138.390625 -462.65625 C 196.878906 -474.058594 243.996094 -437.527344 258.078125 -365.277344 C 269.34375 -307.476562 246.441406 -263.730469 198.960938 -254.476562 Z M 173.5 -249.515625 "/></g></g></g><g fill="#ea2e27" fill-opacity="1"><g transform="translate(578.209101, 1103.191067)"><g><path d="M 470.914062 -64.53125 C 451.199219 -84.472656 360.851562 -201.582031 335.285156 -238.414062 C 386.539062 -272.324219 409.140625 -324.246094 401.242188 -381.894531 C 388.679688 -473.578125 304.964844 -537.113281 163.96875 -517.792969 L -12.449219 -493.617188 C -6.96875 -463.941406 51.121094 -45.214844 54.175781 -7.425781 L 170.863281 -23.414062 C 168.265625 -37.210938 157.957031 -107.265625 146.628906 -189.917969 L 226.503906 -200.863281 L 231.367188 -201.53125 C 257.277344 -172.53125 331.417969 -65.226562 341.722656 -46.828125 Z M 185.988281 -258.996094 C 169.320312 -256.710938 151.480469 -257.804688 137.015625 -260.070312 L 114.554688 -423.984375 C 114.230469 -436.679688 121.996094 -441.988281 141.441406 -444.652344 L 170.613281 -448.648438 C 233.820312 -457.3125 274.066406 -421.785156 282.445312 -360.664062 C 290.058594 -305.097656 263.085938 -269.5625 206.824219 -261.851562 Z M 185.988281 -258.996094 "/></g></g></g><g fill="#ea2e27" fill-opacity="1"><g transform="translate(1026.525956, 1041.874522)"><g><path d="M 238.371094 -86.46875 C 195.75 -82.957031 177.46875 -82.855469 164.546875 -86.011719 C 160.511719 -126.480469 156.25 -178.179688 151.816406 -231.980469 C 214 -237.105469 276.125 -242.925781 337.839844 -245.199219 L 331.910156 -317.164062 C 270.015625 -308.546875 208.585938 -302.78125 146.347656 -298.355469 C 142.375 -346.566406 138.632812 -391.980469 136.277344 -429.066406 C 137.214844 -434.769531 142.632812 -437.328125 151.714844 -438.078125 C 211.800781 -443.027344 307.636719 -449.519531 362.25 -452.613281 L 356.550781 -521.78125 L 14.195312 -493.570312 C 19.574219 -453.917969 54.117188 -34.707031 54.496094 -4.492188 L 407.332031 -33.566406 L 401.574219 -103.433594 C 357.730469 -97.710938 274.703125 -89.460938 238.371094 -86.46875 Z M 238.371094 -86.46875 "/></g></g></g><g fill="#ea2e27" fill-opacity="1"><g transform="translate(1417.329497, 1005.701232)"><g><path d="M 129.671875 -2.519531 L 148.957031 -345.074219 L 273.539062 -104.183594 C 278.597656 -96.570312 283.625 -90.355469 297.644531 -90.628906 C 308.15625 -90.832031 313.65625 -96.550781 320.503906 -105.097656 L 428.71875 -345.605469 L 458.402344 -8.910156 L 577.558594 -11.226562 L 532.273438 -501.175781 L 447.460938 -499.527344 C 433.445312 -499.253906 428.671875 -492.148438 422.582031 -480.8125 L 308.058594 -240.183594 L 188.476562 -476.261719 C 181.910156 -489.457031 172.703125 -494.1875 155.179688 -493.847656 L 66.863281 -492.128906 L 40.652344 -0.789062 Z M 129.671875 -2.519531 "/></g></g></g><g fill="#ea2e27" fill-opacity="1"><g transform="translate(2009.31144, 996.50561)"><g><path d="M 247.324219 -55.933594 C 204.597656 -57.789062 186.449219 -59.980469 174.023438 -64.726562 C 175.085938 -105.382812 177.335938 -157.210938 179.675781 -211.140625 C 242.007812 -208.4375 304.375 -206.433594 365.886719 -200.957031 L 369.015625 -273.097656 C 306.53125 -272.300781 244.863281 -274.273438 182.558594 -277.679688 C 184.65625 -326.003906 186.632812 -371.53125 188.941406 -408.621094 C 190.585938 -414.164062 196.28125 -416.023438 205.382812 -415.628906 C 265.617188 -413.015625 361.511719 -407.453125 416.082031 -403.679688 L 419.089844 -473.019531 L 75.894531 -487.90625 C 76.265625 -447.890625 58.039062 -27.65625 54.628906 2.371094 L 408.328125 17.710938 L 411.367188 -52.328125 C 367.152344 -52.140625 283.742188 -54.355469 247.324219 -55.933594 Z M 247.324219 -55.933594 "/></g></g></g><g fill="#ea2e27" fill-opacity="1"><g transform="translate(2402.199862, 1011.139714)"><g><path d="M 299.136719 -462.957031 L 103.839844 -482.730469 C 101.484375 -438.578125 60.300781 -24.898438 54.402344 5.507812 L 252.488281 25.566406 C 407.332031 41.242188 517.578125 -38.492188 532.832031 -189.148438 C 547.734375 -336.316406 449.097656 -447.773438 299.136719 -462.957031 Z M 237.152344 -38.699219 C 212.742188 -41.171875 194.269531 -53.613281 179.914062 -64.929688 C 188.75 -159.160156 204.148438 -311.214844 213.957031 -401.117188 C 216.683594 -407.183594 222.40625 -408.015625 237.75 -406.460938 L 272.625 -402.929688 C 350.742188 -395.019531 421.578125 -308.222656 409.078125 -184.769531 C 398.554688 -80.84375 340.382812 -28.246094 276.210938 -34.746094 Z M 237.152344 -38.699219 "/></g></g></g><g fill="#ea2e27" fill-opacity="1"><g transform="translate(2910.440276, 1065.581995)"><g><path d="M 170.613281 25.175781 C 172.238281 -5.058594 233.636719 -421.183594 242.246094 -460.304688 L 125.730469 -477.5 C 122.078125 -438.351562 60.578125 -21.535156 54.097656 7.980469 Z M 170.613281 25.175781 "/></g></g></g><g fill="#ea2e27" fill-opacity="1"><g transform="translate(3112.628538, 1091.929231)"><g><path d="M 376.3125 -416.707031 C 374.191406 -424.253906 367.28125 -429.152344 355.574219 -431.398438 L 252.304688 -451.238281 C 245.027344 -431.933594 251.226562 -412.183594 263.089844 -407.050781 C 189.476562 -287.695312 70.648438 -111.355469 -3.441406 -0.660156 L 99.140625 19.046875 L 158.5625 -85.898438 C 217.214844 -75.34375 275.734375 -64.101562 334.121094 -52.171875 C 339.105469 -11.238281 344.78125 29.828125 351.117188 67.453125 L 493.628906 94.832031 C 460.378906 -10.785156 423.480469 -216.328125 376.3125 -416.707031 Z M 188.683594 -138.648438 C 226.695312 -202.734375 259.441406 -254.269531 295.519531 -319.4375 C 303.207031 -266.5625 315.453125 -192.824219 327.753906 -111.933594 Z M 188.683594 -138.648438 "/></g></g></g></svg>
