<svg xmlns="http://www.w3.org/2000/svg" xmlns:xlink="http://www.w3.org/1999/xlink" width="500" zoomAndPan="magnify" viewBox="0 0 375 149.999998" height="200" preserveAspectRatio="xMidYMid meet" version="1.0"><defs><g/></defs><rect x="-37.5" width="450" fill="#ffffff" y="-15" height="179.999997" fill-opacity="1"/><rect x="-37.5" width="450" fill="#ffffff" y="-15" height="179.999997" fill-opacity="1"/><g fill="#ea2e27" fill-opacity="1"><g transform="translate(9.982519, 100.715307)"><g><path d="M 14.394531 -54.433594 L -4.152344 -50.820312 C -3.257812 -47.378906 5.035156 -4.816406 5.542969 -1.082031 L 17.480469 -3.40625 C 17.160156 -4.671875 15.882812 -10.839844 14.402344 -18.441406 L 21.082031 -19.746094 C 34.011719 -22.265625 40.585938 -30.550781 38.589844 -40.785156 C 36.542969 -51.300781 26.617188 -56.816406 14.394531 -54.433594 Z M 17.917969 -25.765625 C 15.570312 -25.308594 14.476562 -25.242188 13.058594 -25.335938 L 9.085938 -45.726562 C 9.132812 -46.621094 9.957031 -46.929688 10.878906 -47.109375 L 14.289062 -47.773438 C 20.332031 -48.953125 25.195312 -45.179688 26.648438 -37.71875 C 27.8125 -31.75 25.449219 -27.234375 20.546875 -26.277344 Z M 17.917969 -25.765625 "/></g></g></g><g fill="#ea2e27" fill-opacity="1"><g transform="translate(53.590896, 92.109581)"><g><path d="M 48.628906 -6.664062 C 46.589844 -8.722656 37.261719 -20.816406 34.621094 -24.617188 C 39.914062 -28.121094 42.25 -33.484375 41.433594 -39.433594 C 40.136719 -48.902344 31.492188 -55.464844 16.933594 -53.46875 L -1.285156 -50.972656 C -0.71875 -47.90625 5.277344 -4.667969 5.59375 -0.765625 L 17.644531 -2.417969 C 17.375 -3.84375 16.3125 -11.078125 15.140625 -19.609375 L 23.390625 -20.742188 L 23.890625 -20.808594 C 26.566406 -17.816406 34.222656 -6.734375 35.285156 -4.835938 Z M 19.207031 -26.746094 C 17.484375 -26.507812 15.640625 -26.621094 14.148438 -26.855469 L 11.828125 -43.78125 C 11.796875 -45.09375 12.597656 -45.640625 14.605469 -45.914062 L 17.617188 -46.328125 C 24.144531 -47.222656 28.300781 -43.554688 29.164062 -37.242188 C 29.953125 -31.503906 27.167969 -27.835938 21.355469 -27.039062 Z M 19.207031 -26.746094 "/></g></g></g><g fill="#ea2e27" fill-opacity="1"><g transform="translate(99.884951, 85.777921)"><g><path d="M 24.613281 -8.929688 C 20.214844 -8.566406 18.324219 -8.554688 16.992188 -8.882812 C 16.574219 -13.058594 16.132812 -18.398438 15.675781 -23.953125 C 22.097656 -24.484375 28.511719 -25.085938 34.886719 -25.320312 L 34.273438 -32.75 C 27.882812 -31.859375 21.539062 -31.265625 15.113281 -30.808594 C 14.703125 -35.785156 14.316406 -40.476562 14.074219 -44.304688 C 14.167969 -44.894531 14.730469 -45.160156 15.667969 -45.238281 C 21.871094 -45.746094 31.765625 -46.417969 37.40625 -46.738281 L 36.816406 -53.878906 L 1.464844 -50.96875 C 2.019531 -46.871094 5.589844 -3.582031 5.628906 -0.464844 L 42.0625 -3.464844 L 41.46875 -10.679688 C 36.941406 -10.089844 28.367188 -9.238281 24.613281 -8.929688 Z M 24.613281 -8.929688 "/></g></g></g><g fill="#ea2e27" fill-opacity="1"><g transform="translate(140.240075, 82.042598)"><g><path d="M 13.390625 -0.261719 L 15.382812 -35.632812 L 28.246094 -10.757812 C 28.769531 -9.972656 29.289062 -9.332031 30.734375 -9.359375 C 31.820312 -9.378906 32.390625 -9.96875 33.09375 -10.851562 L 44.269531 -35.6875 L 47.335938 -0.921875 L 59.640625 -1.160156 L 54.964844 -51.753906 L 46.207031 -51.582031 C 44.757812 -51.554688 44.265625 -50.820312 43.636719 -49.648438 L 31.8125 -24.800781 L 19.460938 -49.179688 C 18.785156 -50.542969 17.832031 -51.03125 16.023438 -50.996094 L 6.90625 -50.816406 L 4.199219 -0.0820312 Z M 13.390625 -0.261719 "/></g></g></g><g fill="#ea2e27" fill-opacity="1"><g transform="translate(201.369278, 81.093046)"><g><path d="M 25.539062 -5.777344 C 21.128906 -5.96875 19.253906 -6.195312 17.96875 -6.683594 C 18.078125 -10.882812 18.3125 -16.234375 18.554688 -21.804688 C 24.992188 -21.523438 31.429688 -21.316406 37.78125 -20.75 L 38.105469 -28.199219 C 31.652344 -28.117188 25.285156 -28.320312 18.851562 -28.671875 C 19.066406 -33.664062 19.273438 -38.363281 19.511719 -42.195312 C 19.679688 -42.765625 20.269531 -42.960938 21.207031 -42.917969 C 27.429688 -42.648438 37.332031 -42.074219 42.964844 -41.683594 L 43.277344 -48.84375 L 7.835938 -50.382812 C 7.875 -46.25 5.992188 -2.855469 5.640625 0.246094 L 42.164062 1.828125 L 42.480469 -5.402344 C 37.914062 -5.382812 29.300781 -5.613281 25.539062 -5.777344 Z M 25.539062 -5.777344 "/></g></g></g><g fill="#ea2e27" fill-opacity="1"><g transform="translate(241.939677, 82.604193)"><g><path d="M 30.890625 -47.804688 L 10.722656 -49.847656 C 10.480469 -45.289062 6.226562 -2.570312 5.617188 0.570312 L 26.074219 2.640625 C 42.0625 4.257812 53.445312 -3.976562 55.019531 -19.53125 C 56.558594 -34.730469 46.375 -46.238281 30.890625 -47.804688 Z M 24.488281 -3.996094 C 21.96875 -4.25 20.0625 -5.535156 18.578125 -6.703125 C 19.492188 -16.433594 21.082031 -32.136719 22.09375 -41.421875 C 22.375 -42.046875 22.964844 -42.132812 24.550781 -41.972656 L 28.152344 -41.605469 C 36.21875 -40.789062 43.53125 -31.828125 42.242188 -19.078125 C 41.15625 -8.347656 35.148438 -2.917969 28.523438 -3.585938 Z M 24.488281 -3.996094 "/></g></g></g><g fill="#ea2e27" fill-opacity="1"><g transform="translate(294.421563, 88.226002)"><g><path d="M 17.617188 2.597656 C 17.785156 -0.523438 24.125 -43.492188 25.015625 -47.53125 L 12.984375 -49.308594 C 12.605469 -45.265625 6.253906 -2.222656 5.585938 0.824219 Z M 17.617188 2.597656 "/></g></g></g><g fill="#ea2e27" fill-opacity="1"><g transform="translate(315.299903, 90.946669)"><g><path d="M 38.859375 -43.03125 C 38.640625 -43.808594 37.925781 -44.316406 36.71875 -44.546875 L 26.054688 -46.597656 C 25.300781 -44.601562 25.941406 -42.5625 27.167969 -42.03125 C 19.566406 -29.707031 7.296875 -11.5 -0.355469 -0.0664062 L 10.238281 1.964844 L 16.375 -8.871094 C 22.429688 -7.78125 28.472656 -6.621094 34.503906 -5.386719 C 35.015625 -1.160156 35.601562 3.082031 36.257812 6.964844 L 50.972656 9.792969 C 47.539062 -1.113281 43.730469 -22.339844 38.859375 -43.03125 Z M 19.484375 -14.316406 C 23.410156 -20.933594 26.789062 -26.257812 30.515625 -32.984375 C 31.308594 -27.527344 32.574219 -19.910156 33.84375 -11.558594 Z M 19.484375 -14.316406 "/></g></g></g></svg>
